<svg xmlns="http://www.w3.org/2000/svg" width="29.018" height="9.989" viewBox="0 0 29.018 9.989">
  <path id="arrow-back" data-name="arrow-back" d="M744.37,3083.8l0,0-4.165-4.281a.724.724,0,0,1-.212-.514v0h0a.721.721,0,0,1,.212-.514l4.165-4.281a.686.686,0,0,1,.482-.2.7.7,0,0,1,.694.714.726.726,0,0,1-.194.5l-2.989,3.073h25.41c.684,0,1.237.319,1.237.714s-.553.713-1.237.713H742.358l2.944,3.027a.717.717,0,0,1,.242.541.7.7,0,0,1-.694.714A.682.682,0,0,1,744.37,3083.8Z" transform="translate(-739.991 -3074.006)"/>
</svg>
