<svg xmlns="http://www.w3.org/2000/svg" width="648.285" height="605.858" viewBox="0 0 648.285 605.858">
  <g id="Сгруппировать_1" data-name="Сгруппировать 1" transform="translate(-153 -2594.142)">
    <path id="Forma_1" data-name="Forma 1" d="M754.358,2708.856a15.575,15.575,0,0,1-15.641-15.643v-57.356a40.651,40.651,0,0,1,3.3-16.173,41.326,41.326,0,0,1,22.242-22.243,40.649,40.649,0,0,1,16.175-3.3h5.213a5.287,5.287,0,0,1,5.215,5.215v10.429a5.288,5.288,0,0,1-5.215,5.214h-5.213a20.858,20.858,0,0,0-20.857,20.858v2.605a7.787,7.787,0,0,0,7.819,7.822h18.25a15.575,15.575,0,0,1,15.64,15.644v31.285a15.576,15.576,0,0,1-15.642,15.643Zm-73,0a15.576,15.576,0,0,1-15.644-15.643v-57.356a40.621,40.621,0,0,1,3.3-16.173,41.32,41.32,0,0,1,22.241-22.243,40.653,40.653,0,0,1,16.173-3.3h5.214a5.285,5.285,0,0,1,5.214,5.215v10.429a5.287,5.287,0,0,1-5.214,5.214h-5.214a20.863,20.863,0,0,0-20.858,20.858v2.605a7.788,7.788,0,0,0,7.822,7.822h18.25a15.581,15.581,0,0,1,15.644,15.644v31.285a15.576,15.576,0,0,1-15.642,15.643Z" fill="#fcfcfc"/>
    <path id="Rectangle_42" data-name="Rectangle 42" d="M310,0H512a0,0,0,0,1,0,0V292A310,310,0,0,1,202,602H0a0,0,0,0,1,0,0V310A310,310,0,0,1,310,0Z" transform="translate(153 2598)" fill="#fff"/>
  </g>
</svg>
