<svg xmlns="http://www.w3.org/2000/svg" width="68" height="99" viewBox="0 0 68 99">
  <g id="Сгруппировать_3" data-name="Сгруппировать 3" transform="translate(-264 -2112)">
    <g id="Rectangle_45" data-name="Rectangle 45" transform="translate(264 2112)">
      <path id="Rectangle_45-2" data-name="Rectangle 45" d="M30,0H65a3,3,0,0,1,3,3V69A30,30,0,0,1,38,99H3a3,3,0,0,1-3-3V30A30,30,0,0,1,30,0Z" fill="#ecf2ff"/>
    </g>
    <path id="Forma_1" data-name="Forma 1" d="M284.137,2174.02a1.841,1.841,0,0,1,3.6-.541h6.545l2.608-2.609c-3.523-.375-6.614-2.456-8.663-4.227a27.78,27.78,0,0,1-2.912-2.938c-.374-.439-.64-.781-.8-.991-.312-.416-.379-.523-.379-.715s.059-.3.376-.727c.155-.209.419-.551.8-1a27.38,27.38,0,0,1,2.914-2.936c2.188-1.885,5.569-4.122,9.4-4.26l3.48-3.48a.541.541,0,0,1,.382-.159h3.253a.542.542,0,0,1,0,1.084h-3.029l-2.608,2.608c3.523.375,6.615,2.456,8.664,4.228a27.626,27.626,0,0,1,2.913,2.938c.374.439.64.781.8.991.311.416.379.522.379.715s-.06.3-.377.727c-.154.209-.418.552-.8,1a27.137,27.137,0,0,1-2.913,2.936c-2.189,1.886-5.57,4.124-9.4,4.26l-3.48,3.48a.541.541,0,0,1-.382.158h-6.769a1.841,1.841,0,0,1-3.6-.542Zm1.084,0a.758.758,0,1,0,.758-.759A.759.759,0,0,0,285.221,2174.021Zm3.923-16.042a24.594,24.594,0,0,0-3.814,4.015,25.572,25.572,0,0,0,3.8,3.994c2.08,1.76,5.307,3.859,8.873,3.859s6.783-2.081,8.856-3.827a24.635,24.635,0,0,0,3.815-4.015,25.65,25.65,0,0,0-3.8-3.994c-2.08-1.76-5.308-3.859-8.873-3.859S291.217,2156.233,289.144,2157.979Zm18.3,16.5a.541.541,0,0,1,0-1.083h3.881a.541.541,0,1,1,0,1.083Zm-4.945,0a.541.541,0,0,1,0-1.083H305.2a.541.541,0,0,1,0,1.083Zm-3.84,0a.541.541,0,0,1,0-1.083h1.566a.541.541,0,1,1,0,1.083Zm8.786-2.6a.541.541,0,0,1,0-1.083h3.881a.541.541,0,1,1,0,1.083Zm-22.761-.894a.541.541,0,1,1,0-1.083h5.69a.541.541,0,1,1,0,1.083Zm9.9-2.623a.542.542,0,0,1,.514-.954,6.147,6.147,0,1,0-2.5-2.5.541.541,0,1,1-.953.514,7.278,7.278,0,0,1-.793-4.429,7.164,7.164,0,0,1,2.048-4.111A7.23,7.23,0,1,1,299,2169.158a7.157,7.157,0,0,1-.99.068A7.287,7.287,0,0,1,294.574,2168.365Zm-9.9.456a.541.541,0,1,1,0-1.083H287.6a.541.541,0,1,1,0,1.083Zm8.207-1.708a.542.542,0,0,1,0-.766l0,0a.542.542,0,0,1,.766.767l0,0a.543.543,0,0,1-.766,0Zm1.541-5.115a3.577,3.577,0,0,1,3.574-3.573.541.541,0,0,1,0,1.083,2.491,2.491,0,1,0,2.49,2.491.542.542,0,0,1,1.084,0,3.574,3.574,0,0,1-7.148,0Zm-9.746-8.8a.541.541,0,1,1,0-1.083h3.952a.541.541,0,1,1,0,1.083Zm23.5-3.222a1.841,1.841,0,1,1,1.841,1.842A1.842,1.842,0,0,1,308.181,2149.978Zm1.083,0a.758.758,0,1,0,.758-.758A.759.759,0,0,0,309.263,2149.978Zm-18.41.623a.541.541,0,0,1,0-1.083h3.217a.541.541,0,1,1,0,1.083Zm-6.172,0a.541.541,0,1,1,0-1.083h3.952a.541.541,0,1,1,0,1.083Zm21.655-.239a.541.541,0,1,1,.383.158A.546.546,0,0,1,306.336,2150.361Z" fill="#464ee5"/>
  </g>
</svg>
