<svg xmlns="http://www.w3.org/2000/svg" width="68" height="99" viewBox="0 0 68 99">
  <g id="Сгруппировать_4" data-name="Сгруппировать 4" transform="translate(-593 -2112)">
    <path id="Rectangle_45" data-name="Rectangle 45" d="M30,0H65a3,3,0,0,1,3,3V69A30,30,0,0,1,38,99H3a3,3,0,0,1-3-3V30A30,30,0,0,1,30,0Z" transform="translate(593 2112)" fill="#ecf2ff"/>
    <path id="Shape_1" data-name="Shape 1" d="M625.153,2173.674a3.6,3.6,0,0,1-4.085.124,3.432,3.432,0,0,1-.463.1c-.029,0-.059.01-.088.013a3.553,3.553,0,0,1-.473.035,3.615,3.615,0,0,1-3.612-3.612,3.567,3.567,0,0,1,.246-1.3,10.321,10.321,0,0,1,5.49-8.681,3.568,3.568,0,0,1,.977.137,3.044,3.044,0,0,1,.509-.448v-3.088a1.7,1.7,0,0,0-1.7-1.7h-2.55a1.7,1.7,0,0,0-1.7,1.7v.85a1.7,1.7,0,0,1-1.7,1.7h-.85l.765,1.02-.68.51-1.465-1.954,1.465-1.954.68.51-.765,1.019h.85a.85.85,0,0,0,.85-.85v-.85a2.552,2.552,0,0,1,2.549-2.549h1.275v-.851h.85v.851h.425a2.551,2.551,0,0,1,2.549,2.549v2.677a2.947,2.947,0,0,1,3.018.809,4.409,4.409,0,0,1,2.718-.938,4.644,4.644,0,0,1,.637.05v-1.324h-.5l.015-.85H631a2.923,2.923,0,0,1,2.849-2.124h1.7a2.127,2.127,0,0,0,2.124-2.125v-2.974l-1.02.764-.509-.679,1.954-1.465,1.955,1.465-.51.679-1.02-.764v2.974a2.977,2.977,0,0,1-2.974,2.974h-1.7a2.127,2.127,0,0,0-2.125,2.125v1.531a4.436,4.436,0,0,1,2.944,3.718,3.623,3.623,0,0,1,2.255,1.974h.325v.85h-.058a3.641,3.641,0,0,1,.058.637,3.6,3.6,0,0,0-.85,3.824,3.615,3.615,0,0,1-3.612,3.611,3.6,3.6,0,0,0-4.673.85A3.585,3.585,0,0,1,625.153,2173.674Zm.49-.84a2.755,2.755,0,0,0,4.62.51,3.6,3.6,0,0,1-1.08-2.342l.848-.057a2.754,2.754,0,0,0,.893,1.859l.169.132a2.734,2.734,0,0,0,1.7.586,2.763,2.763,0,0,0,2.757-2.666,2.686,2.686,0,0,0-2.572-2.741l.056-.795a3.556,3.556,0,0,1,2.687,1.429,2.748,2.748,0,0,0,.684-1.812,2.67,2.67,0,0,0-.086-.637h-.34v-.817a2.756,2.756,0,0,0-1.79-1.252l-.329-.065-.013-.336a3.594,3.594,0,0,0-2.117-3.157v1.378a2.978,2.978,0,0,1-2.974,2.975h-.425v-.85h.425a2.128,2.128,0,0,0,2.124-2.125v-1.64a3.679,3.679,0,0,0-.651-.06,3.613,3.613,0,0,0-2.493,1l-.244.207a3.672,3.672,0,0,0-.967,2.4,3.724,3.724,0,0,0,3.5,3.611v.85a4.375,4.375,0,0,1-3.135-7.407,2.094,2.094,0,0,0-2.389-.482v2.791h-.85v-2.118l-.021.025-.191.263-.3-.115a2.692,2.692,0,0,0-1.609-.1v1.2h-.85v-.839a2.756,2.756,0,0,0-1.268,2.2l-.014.331-.327.065a2.761,2.761,0,0,0-1.578,4.47l.173.209-.116.245a2.756,2.756,0,0,0,2.493,3.944,2.777,2.777,0,0,0,.455-.041l.031-.005a2.815,2.815,0,0,0,.454-.122,2.76,2.76,0,0,0,.345-5.04l.4-.752a3.6,3.6,0,0,1,1.752,2.1,2.738,2.738,0,0,0,1.406-.685l.575.626a3.6,3.6,0,0,1-1.821.894c.006.089.018.177.018.267a3.608,3.608,0,0,1-1.607,3,2.712,2.712,0,0,0,.97.185,2.748,2.748,0,0,0,1.946-.8l.419-.416Zm7.788-6.534v-.851h1.27v.851Zm4.836-1.11a2.168,2.168,0,0,0,.77-.718l.715.461a3.005,3.005,0,0,1-1.076,1Zm-17.586-.17v-1.27h.85v1.27Zm18.688-1.543c0-.051.005-.1.005-.149v-1.275h.85v1.275c0,.069,0,.139-.007.209Zm.005-2.7v-.425a2.112,2.112,0,0,0-.073-.552l.82-.221a2.947,2.947,0,0,1,.1.773v.425Zm-18.694-.858v-1.27h.85v1.27Zm17.212-1.593.259-.808a2.994,2.994,0,0,1,1.247.78l-.614.588A2.162,2.162,0,0,0,637.891,2158.327Zm-2.341-.1v-.85h1.27v.85Zm-2.551,0v-.85h1.27v.85Zm-5.089-1.435.725-.442a2.171,2.171,0,0,0,.751.738l-.427.733A3.01,3.01,0,0,1,627.91,2156.8Zm-7.231.575v-1.27h.85v1.27Zm6.8-2.115v-1.275h.851l0,1.313-.849.094C627.479,2155.344,627.478,2155.3,627.477,2155.255Zm0-2.555v-1.27h.85v1.27Zm-6.8-.42v-1.27h.85v1.27Zm7.648-2.123h-.85l-1.02.764-.51-.679,1.955-1.465,1.954,1.465-.509.679Zm-7.223-.319-1.444,1.083-.51-.679,1.955-1.465,1.954,1.465-.509.679Z" fill="#464ee5"/>
  </g>
</svg>
