<svg xmlns="http://www.w3.org/2000/svg" width="68" height="99" viewBox="0 0 68 99">
  <g id="Сгруппировать_5" data-name="Сгруппировать 5" transform="translate(-922 -2112)">
    <path id="Rectangle_45" data-name="Rectangle 45" d="M30,0H65a3,3,0,0,1,3,3V69A30,30,0,0,1,38,99H3a3,3,0,0,1-3-3V30A30,30,0,0,1,30,0Z" transform="translate(922 2112)" fill="#ecf2ff"/>
    <path id="Forma_1" data-name="Forma 1" d="M967.014,2173.744v-18.06H954.382v3.236h8.665a.731.731,0,1,1,0,1.462h-9.4a.732.732,0,0,1-.731-.732v-4.7a.731.731,0,0,1,.731-.731h14.094a.732.732,0,0,1,.732.731v18.792a.731.731,0,1,1-1.462,0Zm-4.7,0v-8.664H948.953a.731.731,0,0,1-.731-.732v-11.8h-.444a.731.731,0,0,1-.585-1.169l1.174-1.566a.731.731,0,0,1,1.17,0l1.154,1.539a.731.731,0,0,1-.563,1.2h-.445v11.066h13.363a.732.732,0,0,1,.732.731v9.4a.731.731,0,1,1-1.462,0Zm-18.061.732a.731.731,0,0,1-.731-.732v-18.792a.731.731,0,0,1,1.462,0v18.062h12.632v-3.237h-8.665a.731.731,0,1,1,0-1.461h9.4a.73.73,0,0,1,.731.73v4.7a.731.731,0,0,1-.731.732Z" fill="#464ee5"/>
  </g>
</svg>
