<svg xmlns="http://www.w3.org/2000/svg" width="11.186" height="21.595" viewBox="0 0 11.186 21.595">
  <path id="Shape_1" data-name="Shape 1" d="M1110.83,197.012a26.007,26.007,0,0,0-2.64-1.2,5.935,5.935,0,0,1-1.449-.812,1.261,1.261,0,0,1,.312-2.244,2.553,2.553,0,0,1,.887-.183,6.734,6.734,0,0,1,3.335.66c.526.254.7.174.878-.374.187-.58.343-1.169.517-1.753a.613.613,0,0,0-.4-.816,8.5,8.5,0,0,0-2.1-.629c-.954-.147-.954-.152-.958-1.111,0-1.351,0-1.351-1.36-1.351-.2,0-.392,0-.589,0-.633.018-.74.129-.758.767-.009.286,0,.571,0,.861,0,.847-.009.834-.82,1.128a4.526,4.526,0,0,0-3.3,4.193,4.3,4.3,0,0,0,2.43,4.108,26.879,26.879,0,0,0,3.036,1.365,4.493,4.493,0,0,1,1.106.651,1.517,1.517,0,0,1-.361,2.658,3.637,3.637,0,0,1-1.948.254,8.69,8.69,0,0,1-2.969-.887c-.548-.285-.709-.21-.9.384-.161.513-.3,1.03-.446,1.548-.192.7-.12.861.544,1.186a9.484,9.484,0,0,0,2.675.767c.722.116.745.147.753.9,0,.339,0,.682.009,1.021a.607.607,0,0,0,.651.687c.5.009,1,.009,1.5,0a.572.572,0,0,0,.62-.647c0-.464.022-.932,0-1.4a.737.737,0,0,1,.638-.838,5.036,5.036,0,0,0,2.626-1.686A4.741,4.741,0,0,0,1110.83,197.012Z" transform="translate(-1102.235 -187.202)" fill="#8571c0" opacity="0.671"/>
</svg>
