<svg xmlns="http://www.w3.org/2000/svg" width="36" height="37" viewBox="0 0 36 37">
  <g id="tick-hover" data-name="tick-hover" transform="translate(-260 -841)">
    <path id="Rectangle_39" data-name="Rectangle 39" d="M12,0H36a0,0,0,0,1,0,0V22A15,15,0,0,1,21,37H0a0,0,0,0,1,0,0V12A12,12,0,0,1,12,0Z" transform="translate(260 841)" fill="#2020DF"/>
    <path id="TICK_copy_3" data-name="TICK copy 3" d="M284.322,856.426h0l-7.227,7.227h0a.943.943,0,0,1-1.333,0h0l-4.085-4.085h0a.943.943,0,0,1,1.333-1.333h0l3.418,3.418,6.56-6.56h0a.943.943,0,0,1,1.333,1.333Z" fill="#FFFFFF"/>
  </g>
</svg>
